<?xml version='1.0' encoding='UTF-8'?>
<svg xmlns:inkscape="http://www.inkscape.org/namespaces/inkscape" xmlns:sodipodi="http://sodipodi.sourceforge.net/DTD/sodipodi-0.dtd" xmlns:xlink="http://www.w3.org/1999/xlink" xmlns="http://www.w3.org/2000/svg" xmlns:svg="http://www.w3.org/2000/svg" xmlns:rdf="http://www.w3.org/1999/02/22-rdf-syntax-ns#" xmlns:cc="http://creativecommons.org/ns#" xmlns:dc="http://purl.org/dc/elements/1.1/" width="1872.364pt" height="638.95398pt" viewBox="0.0 0.0 1872.3641 638.95398" version="1.1" id="svg33536" sodipodi:docname="method_frame0.svg" inkscape:version="1.4 (e7c3feb1, 2024-10-09)" xml:space="preserve"><sodipodi:namedview id="namedview33536" pagecolor="#ffffff" bordercolor="#000000" borderopacity="0.25" inkscape:showpageshadow="2" inkscape:pageopacity="0.0" inkscape:pagecheckerboard="0" inkscape:deskcolor="#d1d1d1" inkscape:document-units="pt" inkscape:zoom="0.3229663" inkscape:cx="1164.2082" inkscape:cy="674.99303" inkscape:window-width="1728" inkscape:window-height="1051" inkscape:window-x="0" inkscape:window-y="38" inkscape:window-maximized="1" inkscape:current-layer="svg33536"/><metadata id="metadata1"><rdf:RDF><cc:Work><dc:type rdf:resource="http://purl.org/dc/dcmitype/StillImage"/><dc:date>2026-08-20T11:45:03.827344</dc:date><dc:format>image/svg+xml</dc:format><dc:creator><cc:Agent><dc:title>Matplotlib v3.8.4, https://matplotlib.org/</dc:title></cc:Agent></dc:creator></cc:Work></rdf:RDF></metadata><defs id="defs1"><style type="text/css" id="style1">*{stroke-linejoin: round; stroke-linecap: butt}</style><clipPath clipPathUnits="userSpaceOnUse" id="clipPath5-5"><path d="M 0,0 H 1920 V 1080 H 0 Z" id="path5-2-83"/></clipPath><clipPath clipPathUnits="userSpaceOnUse" id="clipPath6-3"><path d="M 453.687,532.5106 H 595.4256 V 757.0892 H 453.687 Z" transform="matrix(1,0,0,-1,-480.38419,637.91081)" id="path6-4"/></clipPath><clipPath clipPathUnits="userSpaceOnUse" id="clipPath1"><path d="M 453.687,532.5106 H 595.4256 V 757.0892 H 453.687 Z" transform="matrix(1,0,0,-1,-480.38419,637.91081)" id="path1-3"/></clipPath><clipPath clipPathUnits="userSpaceOnUse" id="clipPath2"><path d="M 453.687,532.5106 H 595.4256 V 757.0892 H 453.687 Z" transform="matrix(1,0,0,-1,-480.38419,637.91081)" id="path2"/></clipPath><clipPath clipPathUnits="userSpaceOnUse" id="clipPath66-2"><path d="M 0,0 H 1920 V 1080 H 0 Z" transform="matrix(1,0,0,-1,-370,642.89879)" id="path66-1"/></clipPath><clipPath clipPathUnits="userSpaceOnUse" id="clipPath67-4"><path d="M 0,0 H 1920 V 1080 H 0 Z" transform="matrix(0,0.45454545,0.45454545,0,-289.22673,-180.61363)" id="path67-7"/></clipPath><clipPath clipPathUnits="userSpaceOnUse" id="clipPath3"><path d="M 0,0 H 1920 V 1080 H 0 Z" transform="matrix(1,0,0,-1,-370,642.89879)" id="path3"/></clipPath><clipPath clipPathUnits="userSpaceOnUse" id="clipPath4"><path d="M 0,0 H 1920 V 1080 H 0 Z" transform="matrix(0,0.45454545,0.45454545,0,-289.22673,-180.61363)" id="path4"/></clipPath><inkscape:path-effect effect="bspline" id="path-effect563-5" is_visible="true" lpeversion="1.3" weight="33.333333" steps="2" helper_size="0" apply_no_weight="true" apply_with_weight="true" only_selected="false" uniform="false"/><inkscape:path-effect effect="bspline" id="path-effect562-1" is_visible="true" lpeversion="1.3" weight="33.333333" steps="2" helper_size="0" apply_no_weight="true" apply_with_weight="true" only_selected="false" uniform="false"/><marker style="overflow:visible" id="ArrowWide" refX="0" refY="0" orient="auto-start-reverse" inkscape:stockid="Wide arrow" markerWidth="1" markerHeight="1" viewBox="0 0 1 1" inkscape:isstock="true" inkscape:collect="always" preserveAspectRatio="xMidYMid"><path style="fill:none;stroke:context-stroke;stroke-width:1;stroke-linecap:butt" d="M 3,-3 0,0 3,3" transform="rotate(180,0.125,0)" sodipodi:nodetypes="ccc" id="path568"/></marker><inkscape:path-effect effect="bspline" id="path-effect554-8" is_visible="true" lpeversion="1.3" weight="33.333333" steps="2" helper_size="0" apply_no_weight="true" apply_with_weight="true" only_selected="false" uniform="false"/><inkscape:path-effect effect="bspline" id="path-effect556-6" is_visible="true" lpeversion="1.3" weight="33.333333" steps="2" helper_size="0" apply_no_weight="true" apply_with_weight="true" only_selected="false" uniform="false"/><clipPath clipPathUnits="userSpaceOnUse" id="clipPath66-2-3"><path d="M 0,0 H 1920 V 1080 H 0 Z" transform="matrix(1,0,0,-1,-370,642.89879)" id="path66-1-4"/></clipPath><clipPath clipPathUnits="userSpaceOnUse" id="clipPath67-4-0"><path d="M 0,0 H 1920 V 1080 H 0 Z" transform="matrix(0,0.45454545,0.45454545,0,-289.22673,-180.61363)" id="path67-7-7"/></clipPath><clipPath clipPathUnits="userSpaceOnUse" id="clipPath66-2-0"><path d="M 0,0 H 1920 V 1080 H 0 Z" transform="matrix(1,0,0,-1,-370,642.89879)" id="path66-1-6"/></clipPath><clipPath clipPathUnits="userSpaceOnUse" id="clipPath67-4-4"><path d="M 0,0 H 1920 V 1080 H 0 Z" transform="matrix(0,0.45454545,0.45454545,0,-289.22673,-180.61363)" id="path67-7-78"/></clipPath><clipPath clipPathUnits="userSpaceOnUse" id="clipPath5-4-4"><path d="M 0,0 H 1920 V 1080 H 0 Z" id="path5-2-8-6"/></clipPath><clipPath clipPathUnits="userSpaceOnUse" id="clipPath6-5-6"><path d="M 453.687,532.5106 H 595.4256 V 757.0892 H 453.687 Z" transform="matrix(1,0,0,-1,-480.38419,637.91081)" id="path6-1-8"/></clipPath><clipPath clipPathUnits="userSpaceOnUse" id="clipPath1-4"><path d="M 0,0 H 1920 V 1080 H 0 Z" transform="matrix(1,0,0,-1,-370,642.89879)" id="path1"/></clipPath><clipPath clipPathUnits="userSpaceOnUse" id="clipPath2-0"><path d="M 0,0 H 1920 V 1080 H 0 Z" transform="matrix(0,0.45454545,0.45454545,0,-289.22673,-180.61363)" id="path2-0"/></clipPath><marker style="overflow:visible" id="ArrowWide-4" refX="0" refY="0" orient="auto-start-reverse" inkscape:stockid="Wide arrow" markerWidth="1" markerHeight="1" viewBox="0 0 1 1" inkscape:isstock="true" inkscape:collect="always" preserveAspectRatio="xMidYMid"><path style="fill:none;stroke:context-stroke;stroke-width:1;stroke-linecap:butt" d="M 3,-3 0,0 3,3" transform="rotate(180,0.125,0)" sodipodi:nodetypes="ccc" id="path568-1"/></marker><inkscape:path-effect effect="bspline" id="path-effect554-8-4" is_visible="true" lpeversion="1.3" weight="33.333333" steps="2" helper_size="0" apply_no_weight="true" apply_with_weight="true" only_selected="false" uniform="false"/><marker style="overflow:visible" id="ArrowWide-4-7" refX="0" refY="0" orient="auto-start-reverse" inkscape:stockid="Wide arrow" markerWidth="1" markerHeight="1" viewBox="0 0 1 1" inkscape:isstock="true" inkscape:collect="always" preserveAspectRatio="xMidYMid"><path style="fill:none;stroke:context-stroke;stroke-width:1;stroke-linecap:butt" d="M 3,-3 0,0 3,3" transform="rotate(180,0.125,0)" sodipodi:nodetypes="ccc" id="path568-1-0"/></marker><inkscape:path-effect effect="bspline" id="path-effect554-8-4-1" is_visible="true" lpeversion="1.3" weight="33.333333" steps="2" helper_size="0" apply_no_weight="true" apply_with_weight="true" only_selected="false" uniform="false"/><clipPath clipPathUnits="userSpaceOnUse" id="clipPath66-2-0-9"><path d="M 0,0 H 1920 V 1080 H 0 Z" transform="matrix(1,0,0,-1,-370,642.89879)" id="path66-1-6-6"/></clipPath><clipPath clipPathUnits="userSpaceOnUse" id="clipPath67-4-4-1"><path d="M 0,0 H 1920 V 1080 H 0 Z" transform="matrix(0,0.45454545,0.45454545,0,-289.22673,-180.61363)" id="path67-7-78-7"/></clipPath><clipPath clipPathUnits="userSpaceOnUse" id="clipPath1-3"><path d="M 0,0 H 1920 V 1080 H 0 Z" transform="matrix(1,0,0,-1,-370,642.89879)" id="path1-9"/></clipPath><clipPath clipPathUnits="userSpaceOnUse" id="clipPath2-8"><path d="M 0,0 H 1920 V 1080 H 0 Z" transform="matrix(0,0.45454545,0.45454545,0,-289.22673,-180.61363)" id="path2-4"/></clipPath><clipPath clipPathUnits="userSpaceOnUse" id="clipPath66-2-0-96"><path d="M 0,0 H 1920 V 1080 H 0 Z" transform="matrix(1,0,0,-1,-370,642.89879)" id="path66-1-6-7"/></clipPath><clipPath clipPathUnits="userSpaceOnUse" id="clipPath67-4-4-0"><path d="M 0,0 H 1920 V 1080 H 0 Z" transform="matrix(0,0.45454545,0.45454545,0,-289.22673,-180.61363)" id="path67-7-78-9"/></clipPath></defs><g clip-path="url(#p119379491d)" id="g96" transform="matrix(1.1115929,0,0,1.1115929,300.3435,60.246393)"><foreignObject x="250.91675" y="-71.779289" width="151.8" height="151.8" transform="matrix(1,0,0,-1,0,151.8)"><video xmlns="http://www.w3.org/1999/xhtml" autoplay="autoplay" loop="loop" muted="muted" playsinline="playsinline" preload="metadata" style="width:100%;height:100%;object-fit:fill;display:block"><source src="method_details_slots/slot_04_pca_scene.mp4?raw" type="video/mp4"/></video></foreignObject></g><foreignObject x="274.74451" y="382.26645" width="228.45715" height="228.45711"><video xmlns="http://www.w3.org/1999/xhtml" autoplay="autoplay" loop="loop" muted="muted" playsinline="playsinline" preload="metadata" style="width:100%;height:100%;object-fit:fill;display:block"><source src="method_details_slots/slot_01_cube_points.mp4?raw" type="video/mp4"/></video></foreignObject><g clip-path="url(#pa61ea98af4)" id="g1" transform="matrix(1.1115929,0,0,1.1115929,41.989156,60.246393)"><foreignObject x="10.8" y="-71.779289" width="151.8" height="151.8" transform="matrix(1,0,0,-1,0,151.8)"><video xmlns="http://www.w3.org/1999/xhtml" autoplay="autoplay" loop="loop" muted="muted" playsinline="playsinline" preload="metadata" style="width:100%;height:100%;object-fit:fill;display:block"><source src="method_details_slots/slot_02_scene.mp4?raw" type="video/mp4"/></video></foreignObject></g><g clip-path="url(#pd3bde97ea0)" id="g52" transform="matrix(1.1115929,0,0,1.1115929,41.989156,60.246393)"><foreignObject x="10.8" y="-256.35391" width="151.8" height="151.8" transform="matrix(1,0,0,-1,0,151.8)"><video xmlns="http://www.w3.org/1999/xhtml" autoplay="autoplay" loop="loop" muted="muted" playsinline="playsinline" preload="metadata" style="width:100%;height:100%;object-fit:fill;display:block"><source src="method_details_slots/slot_03_wrist.mp4?raw" type="video/mp4"/></video></foreignObject></g><g clip-path="url(#p912db006a2)" id="g117" transform="matrix(1.1115929,0,0,1.1115929,300.3435,60.246393)"><foreignObject x="250.91675" y="-256.35391" width="151.8" height="151.8" transform="matrix(1,0,0,-1,0,151.8)"><video xmlns="http://www.w3.org/1999/xhtml" autoplay="autoplay" loop="loop" muted="muted" playsinline="playsinline" preload="metadata" style="width:100%;height:100%;object-fit:fill;display:block"><source src="method_details_slots/slot_00_pca_wrist.mp4?raw" type="video/mp4"/></video></foreignObject></g><defs id="defs33536"><clipPath id="pa61ea98af4"><rect x="10.8" y="72.086075" width="151.49321" height="151.49321" id="rect33530"/></clipPath><clipPath id="pd3bde97ea0"><rect x="10.8" y="256.66071" width="151.49321" height="151.49321" id="rect33531"/></clipPath><clipPath id="p119379491d"><rect x="250.91675" y="72.086075" width="151.49321" height="151.49321" id="rect33532"/></clipPath><clipPath id="p912db006a2"><rect x="250.91675" y="256.66071" width="151.49321" height="151.49321" id="rect33533"/></clipPath><clipPath id="p77d3c1253d"><rect x="491.03348" y="126.50009" width="227.23982" height="227.23982" id="rect33534"/></clipPath><clipPath id="p97d24e4312"><rect x="806.89685" y="78.04454" width="227.23982" height="324.15091" id="rect33535"/></clipPath><clipPath id="pad24c5ff10"><rect x="1122.7601" y="126.50009" width="227.23982" height="227.23982" id="rect33536"/></clipPath></defs><g id="g545-9" style="stroke:#1a4fb8;stroke-width:1.57775;stroke-opacity:1" transform="matrix(-1.4965476,0,0,1.4965476,471.94617,-697.08833)"><path style="fill:none;fill-rule:evenodd;stroke:#1a4fb8;stroke-width:1.57775;stroke-linejoin:round;stroke-miterlimit:10;stroke-opacity:1" d="m 285.76614,705.51894 11.2109,23.44848 12.90825,-5.75638 -10.11728,-21.54283 z" id="path543" sodipodi:nodetypes="ccccc"/><path style="fill:none;fill-rule:evenodd;stroke:#1a4fb8;stroke-width:1.57775;stroke-linejoin:round;stroke-miterlimit:10;stroke-opacity:1" d="m 285.76953,705.46219 13.25713,-5.18946 10.90224,-1.56993 -10.2045,3.05263 z" id="path544"/><path style="fill:none;fill-rule:evenodd;stroke:#1a4fb8;stroke-width:1.57775;stroke-linejoin:round;stroke-miterlimit:10;stroke-opacity:1" d="m 309.97251,698.79002 0.0436,24.29019 -12.99547,5.84361 z" id="path545"/></g><g id="g568-4" style="stroke:#b4631a;stroke-width:0.999467;stroke-opacity:1" transform="matrix(2.3658518,0,0,2.3658518,-615.86649,-1548.1259)"><path style="fill:none;fill-rule:evenodd;stroke:#b4631a;stroke-width:0.999467;stroke-linejoin:round;stroke-miterlimit:10;stroke-opacity:1" d="m 277.5059,716.86738 -13.08386,-3.38534 6.2522,7.99061" id="path564"/><g id="g567-1" style="stroke:#b4631a;stroke-width:0.999467;stroke-opacity:1"><g id="g566-3" style="stroke:#b4631a;stroke-width:0.999467;stroke-opacity:1"><path style="fill:none;fill-rule:evenodd;stroke:#b4631a;stroke-width:0.999467;stroke-linejoin:round;stroke-miterlimit:10;stroke-opacity:1" d="m 270.79623,721.47265 -5.30674,10.61348 7.07566,-4.91026 4.97125,-10.217 z" id="path565"/><path style="fill:none;fill-rule:evenodd;stroke:#b4631a;stroke-width:0.999467;stroke-linejoin:round;stroke-miterlimit:10;stroke-opacity:1" d="m 272.59564,727.14537 -8.1736,-13.69383 1.03695,18.66509" id="path566"/></g></g></g><path d="m 478.7397,727.42505 h 91.6211 c 5.495,0 8.7919,0 10.9899,-0.9176 3.1686,-1.1533 5.6647,-3.6493 6.8179,-6.8179 0.9177,-2.198 0.9177,-5.495 0.9177,-10.99 V 551.2361 c 0,-5.495 0,-8.7919 -0.9177,-10.9899 -1.1532,-3.1686 -3.6493,-5.6647 -6.8179,-6.8179 -2.198,-0.9177 -5.4949,-0.9177 -10.9899,-0.9177 h -91.6211 c -5.495,0 -8.792,0 -10.9899,0.9177 -3.1686,1.1532 -5.6647,3.6493 -6.8179,6.8179 -0.9177,2.198 -0.9177,5.4949 -0.9177,10.9899 v 157.46345 c 0,5.495 0,8.792 0.9177,10.99 1.1532,3.1686 3.6493,5.6646 6.8179,6.8179 2.1979,0.9176 5.4949,0.9176 10.9899,0.9176 z" style="fill:#4285f5;fill-opacity:1;fill-rule:nonzero;stroke:none" transform="matrix(1.1258777,0,0,-1.1258777,-206.81717,984.5624)" clip-path="url(#clipPath5-5)" id="path243" sodipodi:nodetypes="ssccssccssccssccs"/><g id="g274" transform="matrix(2.524588,0,0,2.524588,-2769.025,-2138.6496)"/><ellipse style="fill:#cf0000;fill-opacity:1;fill-rule:evenodd;stroke-width:1.09309;stroke-linejoin:round;stroke-miterlimit:10" id="ellipse492" cx="651.35394" cy="231.78337" rx="6.1669717" ry="5.929781"/><ellipse style="fill:#cf0000;fill-opacity:1;fill-rule:evenodd;stroke-width:1.09309;stroke-linejoin:round;stroke-miterlimit:10" id="ellipse493" cx="638.17871" cy="426.20526" rx="6.1669717" ry="5.929781"/><ellipse style="fill:#cf0000;fill-opacity:1;fill-rule:evenodd;stroke-width:1.09309;stroke-linecap:butt;stroke-linejoin:round;stroke-miterlimit:10" id="ellipse493-1" cx="378.14243" cy="476.88974" rx="6.1669717" ry="5.929781"/><g id="g576-1" style="stroke:#b4631a;stroke-width:0.999467;stroke-opacity:1" transform="matrix(2.1089338,0,0,2.1089338,-42.338761,-1118.4668)"><path style="fill:none;fill-rule:evenodd;stroke:#b4631a;stroke-width:0.999467;stroke-linejoin:round;stroke-miterlimit:10;stroke-opacity:1" d="m 277.5059,716.86738 -13.08386,-3.38534 6.2522,7.99061" id="path572"/><g id="g575-4" style="stroke:#b4631a;stroke-width:0.999467;stroke-opacity:1"><g id="g574-9" style="stroke:#b4631a;stroke-width:0.999467;stroke-opacity:1"><path style="fill:none;fill-rule:evenodd;stroke:#b4631a;stroke-width:0.999467;stroke-linejoin:round;stroke-miterlimit:10;stroke-opacity:1" d="m 270.79623,721.47265 -5.30674,10.61348 7.07566,-4.91026 4.97125,-10.217 z" id="path573"/><path style="fill:none;fill-rule:evenodd;stroke:#b4631a;stroke-width:0.999467;stroke-linejoin:round;stroke-miterlimit:10;stroke-opacity:1" d="m 272.59564,727.14537 -8.1736,-13.69383 1.03695,18.66509" id="path574"/></g></g></g><g id="g578-5" style="stroke:#1a4fb8;stroke-width:1.57775;stroke-opacity:1" transform="matrix(-1.2506355,0,0,1.2506355,918.50543,-402.41276)"><path style="fill:none;fill-rule:evenodd;stroke:#1a4fb8;stroke-width:1.57775;stroke-linejoin:round;stroke-miterlimit:10;stroke-opacity:1" d="m 285.76614,705.51894 11.2109,23.44848 12.90825,-5.75638 -10.11728,-21.54283 z" id="path576" sodipodi:nodetypes="ccccc"/><path style="fill:none;fill-rule:evenodd;stroke:#1a4fb8;stroke-width:1.57775;stroke-linejoin:round;stroke-miterlimit:10;stroke-opacity:1" d="m 285.76953,705.46219 13.25713,-5.18946 10.90224,-1.56993 -10.2045,3.05263 z" id="path577"/><path style="fill:none;fill-rule:evenodd;stroke:#1a4fb8;stroke-width:1.57775;stroke-linejoin:round;stroke-miterlimit:10;stroke-opacity:1" d="m 309.97251,698.79002 0.0436,24.29019 -12.99547,5.84361 z" id="path578"/></g><g id="g523-6" transform="matrix(4.2583775,0,0,4.2583775,-1454.1422,-3707.4084)"><path d="M 19.577118,0 H 27.35 h 1.5" style="fill:none;stroke:#5e5e5e;stroke-width:3;stroke-linecap:butt;stroke-linejoin:miter;stroke-miterlimit:4;stroke-dasharray:none;stroke-opacity:1" transform="matrix(0.44596486,0,0,0.44596486,581.73701,949.63942)" clip-path="url(#clipPath66-2-0)" id="path522" sodipodi:nodetypes="ccc"/><path d="M 0,0 3,5 6,0 M 3,0 v 5" style="fill:none;stroke:#5e5e5e;stroke-width:1.36364;stroke-linecap:butt;stroke-linejoin:round;stroke-miterlimit:10;stroke-dasharray:none;stroke-opacity:1" transform="matrix(0,-0.9811227,0.9811227,0,593.93414,952.58278)" clip-path="url(#clipPath67-4-4)" id="path523"/></g><g id="g525-2" transform="matrix(4.2583775,0,0,4.2583775,-1296.2263,-3707.4084)"><path d="M 19.577118,0 H 27.35 h 1.5" style="fill:none;stroke:#5e5e5e;stroke-width:3;stroke-linecap:butt;stroke-linejoin:miter;stroke-miterlimit:4;stroke-dasharray:none;stroke-opacity:1" transform="matrix(0.44596486,0,0,0.44596486,581.73701,949.63942)" clip-path="url(#clipPath66-2-0)" id="path524" sodipodi:nodetypes="ccc"/><path d="M 0,0 3,5 6,0 M 3,0 v 5" style="fill:none;stroke:#5e5e5e;stroke-width:1.36364;stroke-linecap:butt;stroke-linejoin:round;stroke-miterlimit:10;stroke-dasharray:none;stroke-opacity:1" transform="matrix(0,-0.9811227,0.9811227,0,593.93414,952.58278)" clip-path="url(#clipPath67-4-4)" id="path525"/></g><g id="g523-6-0" transform="matrix(4.2583775,0,0,4.2583775,-2258.8121,-3707.4084)" style="stroke-linecap:butt;stroke-linejoin:round"><path d="M 19.577118,0 H 27.35 h 1.5" style="fill:none;stroke:#5e5e5e;stroke-width:3;stroke-linecap:butt;stroke-linejoin:miter;stroke-miterlimit:4;stroke-dasharray:none;stroke-opacity:1" transform="matrix(0.44596486,0,0,0.44596486,581.73701,949.63942)" clip-path="url(#clipPath66-2-0-9)" id="path522-6" sodipodi:nodetypes="ccc"/><path d="M 0,0 3,5 6,0 M 3,0 v 5" style="fill:none;stroke:#5e5e5e;stroke-width:1.36364;stroke-linecap:butt;stroke-linejoin:round;stroke-miterlimit:10;stroke-dasharray:none;stroke-opacity:1" transform="matrix(0,-0.9811227,0.9811227,0,593.93414,952.58278)" clip-path="url(#clipPath67-4-4-1)" id="path523-3"/></g><g id="g525-2-4" transform="matrix(4.2583775,0,0,4.2583775,-2043.3692,-3707.4084)" style="stroke-linecap:butt;stroke-linejoin:round"><path d="M 19.577118,0 H 27.35 h 1.5" style="fill:none;stroke:#5e5e5e;stroke-width:3;stroke-linecap:butt;stroke-linejoin:miter;stroke-miterlimit:4;stroke-dasharray:none;stroke-opacity:1" transform="matrix(0.44596486,0,0,0.44596486,581.73701,949.63942)" clip-path="url(#clipPath66-2-0-9)" id="path524-6" sodipodi:nodetypes="ccc"/><path d="M 0,0 3,5 6,0 M 3,0 v 5" style="fill:none;stroke:#5e5e5e;stroke-width:1.36364;stroke-linecap:butt;stroke-linejoin:round;stroke-miterlimit:10;stroke-dasharray:none;stroke-opacity:1" transform="matrix(0,-0.9811227,0.9811227,0,593.93414,952.58278)" clip-path="url(#clipPath67-4-4-1)" id="path525-9"/></g><path d="m 478.7397,727.42505 h 40.99072 c 5.495,0 8.7919,0 10.9899,-0.9176 3.1686,-1.1533 5.6647,-3.6493 6.8179,-6.8179 0.9177,-2.198 0.9177,-5.495 0.9177,-10.99 v -26.17153 c 0,-5.495 0,-8.7919 -0.9177,-10.9899 -1.1532,-3.1686 -3.6493,-5.6647 -6.8179,-6.8179 -2.198,-0.9177 -5.4949,-0.9177 -10.9899,-0.9177 H 478.7397 c -5.495,0 -8.792,0 -10.9899,0.9177 -3.1686,1.1532 -5.6647,3.6493 -6.8179,6.8179 -0.9177,2.198 -0.9177,5.4949 -0.9177,10.9899 v 26.17153 c 0,5.495 0,8.792 0.9177,10.99 1.1532,3.1686 3.6493,5.6646 6.8179,6.8179 2.1979,0.9176 5.4949,0.9176 10.9899,0.9176 z" style="fill:#4285f5;fill-opacity:1;fill-rule:nonzero;stroke:none" transform="matrix(1.1767952,0,0,-1.8735,568.57429,1639.7471)" clip-path="url(#clipPath5-4-4)" id="path526" sodipodi:nodetypes="ssccssccssccssccs"/><g id="g533-4" transform="matrix(2.6387617,0,0,2.6387617,-2129.4929,-2149.8404)"/><foreignObject x="810.49213" y="221.49553" width="242.00038" height="242.00038"><video xmlns="http://www.w3.org/1999/xhtml" autoplay="autoplay" loop="loop" muted="muted" playsinline="playsinline" preload="metadata" style="width:100%;height:100%;object-fit:fill;display:block"><source src="method_details_slots/slot_05_cube_post.mp4?raw" type="video/mp4"/></video></foreignObject><ellipse style="fill:#cf0000;fill-opacity:1;fill-rule:evenodd;stroke-width:1.09309;stroke-linejoin:round;stroke-miterlimit:10" id="ellipse33548" cx="904.2486" cy="331.28787" rx="6.1669717" ry="5.929781"/><foreignObject x="1268.1866" y="124.17363" width="166.245" height="165.92531"><video xmlns="http://www.w3.org/1999/xhtml" autoplay="autoplay" loop="loop" muted="muted" playsinline="playsinline" preload="metadata" style="width:100%;height:100%;object-fit:fill;display:block"><source src="method_details_slots/slot_06_prob_t0.mp4?raw" type="video/mp4"/></video></foreignObject><foreignObject x="1268.1866" y="279.59894" width="166.245" height="165.92531"><video xmlns="http://www.w3.org/1999/xhtml" autoplay="autoplay" loop="loop" muted="muted" playsinline="playsinline" preload="metadata" style="width:100%;height:100%;object-fit:fill;display:block"><source src="method_details_slots/slot_07_prob_t8.mp4?raw" type="video/mp4"/></video></foreignObject><foreignObject x="1268.1866" y="435.02423" width="166.245" height="165.92531"><video xmlns="http://www.w3.org/1999/xhtml" autoplay="autoplay" loop="loop" muted="muted" playsinline="playsinline" preload="metadata" style="width:100%;height:100%;object-fit:fill;display:block"><source src="method_details_slots/slot_08_prob_t16.mp4?raw" type="video/mp4"/></video></foreignObject><foreignObject x="1513.4436" y="178.2673" width="385.01999" height="385.01999"><video xmlns="http://www.w3.org/1999/xhtml" autoplay="autoplay" loop="loop" muted="muted" playsinline="playsinline" preload="metadata" style="width:100%;height:100%;object-fit:fill;display:block"><source src="method_details_slots/slot_09_trajectory.mp4?raw" type="video/mp4"/></video></foreignObject><g id="g33552" transform="matrix(4.2583775,0,0,4.2583775,-1026.4067,-3707.4084)" style="font-variation-settings:normal;opacity:1;vector-effect:none;fill:none;fill-opacity:1;stroke:#5e5e5e;stroke-width:1.36364;stroke-linecap:butt;stroke-linejoin:round;stroke-miterlimit:10;stroke-dasharray:none;stroke-dashoffset:0;stroke-opacity:1;-inkscape-stroke:none;stop-color:#000000;stop-opacity:1"><path d="M 19.577118,0 H 27.35 h 1.5" style="font-variation-settings:normal;vector-effect:none;fill:none;fill-opacity:1;stroke:#5e5e5e;stroke-width:3.05773;stroke-linecap:butt;stroke-linejoin:round;stroke-miterlimit:10;stroke-dasharray:none;stroke-dashoffset:0;stroke-opacity:1;-inkscape-stroke:none;stop-color:#000000;stop-opacity:1" transform="matrix(0.44596486,0,0,0.44596486,581.73701,949.63942)" clip-path="url(#clipPath66-2-0)" id="path33551" sodipodi:nodetypes="ccc"/><path d="M 0,0 3,5 6,0 M 3,0 v 5" style="font-variation-settings:normal;vector-effect:none;fill:none;fill-opacity:1;stroke:#5e5e5e;stroke-width:1.38988;stroke-linecap:butt;stroke-linejoin:round;stroke-miterlimit:10;stroke-dasharray:none;stroke-dashoffset:0;stroke-opacity:1;-inkscape-stroke:none;stop-color:#000000;stop-opacity:1" transform="matrix(0,-0.9811227,0.9811227,0,593.93414,952.58278)" clip-path="url(#clipPath67-4-4)" id="path33552"/></g>
  <!-- text blocks lifted to top of z-order -->
  <text xml:space="preserve" style="font-size:24.6676px;font-family:DejaVu Sans Mono, ui-monospace, monospace;-inkscape-font-specification:AppleGothic;text-align:center;writing-mode:lr-tb;direction:ltr;text-anchor:middle;fill:#000000;fill-opacity:1;fill-rule:evenodd;stroke-width:6.64661;stroke-linejoin:round;stroke-miterlimit:10" x="128.10847" y="134.68883" id="text279"><tspan sodipodi:role="line" style="font-size:24.6676px;stroke-width:6.64661" x="128.10847" y="134.68883" id="tspan279">Scene View</tspan></text>
  <text xml:space="preserve" style="font-size:24.6676px;font-family:DejaVu Sans Mono, ui-monospace, monospace;-inkscape-font-specification:AppleGothic;text-align:center;writing-mode:lr-tb;direction:ltr;text-anchor:middle;fill:#000000;fill-opacity:1;fill-rule:evenodd;stroke-width:6.64661;stroke-linejoin:round;stroke-miterlimit:10" x="122.85089" y="540.31171" id="text280"><tspan sodipodi:role="line" style="font-size:24.6676px;stroke-width:6.64661" x="122.85089" y="540.31171" id="tspan389">Wrist View</tspan></text>
  <text xml:space="preserve" transform="matrix(0.44596486,0,0,0.44596486,1229.1358,959.24417)" clip-path="url(#clipPath6-3)" id="text252"><tspan sodipodi:role="line" id="tspan248" x="0" y="0"><tspan style="font-variant:normal;font-weight:normal;font-size:22.8000px;font-family:DejaVu Sans Mono, ui-monospace, monospace;writing-mode:lr-tb;fill:#ffffff;fill-opacity:1;fill-rule:nonzero;stroke:none" x="0" y="0" id="tspan243"/></tspan><tspan sodipodi:role="line" id="tspan252" x="0" y="0"><tspan style="font-variant:normal;font-weight:normal;font-size:22.8000px;font-family:DejaVu Sans Mono, ui-monospace, monospace;writing-mode:lr-tb;fill:#ffffff;fill-opacity:1;fill-rule:nonzero;stroke:none" x="0" y="0" id="tspan249">Encoder</tspan></tspan></text>
  <text xml:space="preserve" transform="matrix(0.44596486,0,0,0.44596486,1233.8826,945.52528)" clip-path="url(#clipPath6-3)" id="text268"><tspan sodipodi:role="line" id="tspan256" x="0" y="0"><tspan style="font-variant:normal;font-weight:normal;font-size:22.8000px;font-family:DejaVu Sans Mono, ui-monospace, monospace;writing-mode:lr-tb;fill:#ffffff;fill-opacity:1;fill-rule:nonzero;stroke:none" x="0" y="0" id="tspan255"/></tspan><tspan sodipodi:role="line" id="tspan268" x="0" y="0"><tspan style="font-variant:normal;font-weight:normal;font-size:22.8000px;font-family:DejaVu Sans Mono, ui-monospace, monospace;writing-mode:lr-tb;fill:#ffffff;fill-opacity:1;fill-rule:nonzero;stroke:none" x="0" y="0" id="tspan262">Image</tspan></tspan></text>
  <text xml:space="preserve" style="font-size:26.7199px;font-family:DejaVu Sans Mono, ui-monospace, monospace;-inkscape-font-specification:AppleGothic;text-align:center;writing-mode:lr-tb;direction:ltr;text-anchor:middle;fill:#000000;fill-opacity:1;fill-rule:evenodd;stroke-width:6.03314;stroke-linejoin:round;stroke-miterlimit:10" x="270" y="44.168034" id="text278"><tspan sodipodi:role="line" style="text-align:center;text-anchor:middle;stroke-width:6.03314" x="270" y="44.168034" id="tspan278">1. Encode Posed Multiview Images</tspan><tspan sodipodi:role="line" style="text-align:center;text-anchor:middle;stroke-width:6.03314" x="270" y="79.325783" id="tspan33537">into Pixel-Aligned Feature Maps</tspan></text>
  <text xml:space="preserve" style="font-size:26.7199px;font-family:DejaVu Sans Mono, ui-monospace, monospace;-inkscape-font-specification:AppleGothic;text-align:center;writing-mode:lr-tb;direction:ltr;text-anchor:middle;fill:#000000;fill-opacity:1;fill-rule:evenodd;stroke-width:6.03314;stroke-linejoin:round;stroke-miterlimit:10" x="770" y="44.168034" id="text495"><tspan sodipodi:role="line" id="tspan494" style="stroke-width:6.03314" x="770" y="44.168034">2. Sample Image Features</tspan><tspan sodipodi:role="line" style="stroke-width:6.03314" x="770" y="79.325783" id="tspan495">at Each Point in EEF Volume</tspan></text>
  <text xml:space="preserve" style="font-size:26.7199px;font-family:DejaVu Sans Mono, ui-monospace, monospace;-inkscape-font-specification:AppleGothic;text-align:center;writing-mode:lr-tb;direction:ltr;text-anchor:middle;fill:#000000;fill-opacity:1;fill-rule:evenodd;stroke-width:6.03314;stroke-linejoin:round;stroke-miterlimit:10" x="1210" y="44.168034" id="text509"><tspan sodipodi:role="line" style="text-align:center;text-anchor:middle;stroke-width:6.03314" x="1210" y="44.168034" id="tspan508">3. Decode into Per-Timestep</tspan><tspan sodipodi:role="line" style="text-align:center;text-anchor:middle;stroke-width:6.03314" x="1210" y="79.325783" id="tspan509">Probability Volumes</tspan></text>
  <text xml:space="preserve" style="font-size:26.5676px;font-family:DejaVu Sans Mono, ui-monospace, monospace;-inkscape-font-specification:AppleGothic;text-align:center;writing-mode:lr-tb;direction:ltr;text-anchor:middle;fill:#000000;fill-opacity:1;fill-rule:evenodd;stroke-width:8.28956;stroke-linejoin:round;stroke-miterlimit:10" x="734.25928" y="132.01265" id="text535"><tspan sodipodi:role="line" style="font-size:26.5676px;stroke-width:8.28956" x="734.25928" y="132.01265" id="tspan535">F1</tspan></text>
  <text xml:space="preserve" style="font-size:26.5676px;font-family:DejaVu Sans Mono, ui-monospace, monospace;-inkscape-font-specification:AppleGothic;text-align:center;writing-mode:lr-tb;direction:ltr;text-anchor:middle;fill:#000000;fill-opacity:1;fill-rule:evenodd;stroke-width:8.28956;stroke-linejoin:round;stroke-miterlimit:10" x="732.3266" y="335.05106" id="text553"><tspan sodipodi:role="line" style="font-size:26.5676px;stroke-width:8.28956" x="732.3266" y="335.05106" id="tspan553">F2</tspan></text>
  <text xml:space="preserve" style="font-size:24.6676px;font-family:DejaVu Sans Mono, ui-monospace, monospace;-inkscape-font-specification:AppleGothic;text-align:center;writing-mode:lr-tb;direction:ltr;text-anchor:middle;fill:#000000;fill-opacity:1;fill-rule:evenodd;stroke-width:8.34094;stroke-linejoin:round;stroke-miterlimit:10" x="1506.3853" y="392.76175" id="text539"><tspan sodipodi:role="line" style="font-size:24.6676px;stroke-width:8.34094" x="1506.3853" y="392.76175" id="tspan537">argmax</tspan><tspan sodipodi:role="line" style="font-size:24.6676px;stroke-width:8.34094" x="1506.3853" y="425.21912" id="tspan538">per</tspan><tspan sodipodi:role="line" style="font-size:24.6676px;stroke-width:8.34094" x="1506.3853" y="457.67651" id="tspan539">timestep</tspan></text>
  <text xml:space="preserve" style="font-size:24.6676px;font-family:DejaVu Sans Mono, ui-monospace, monospace;-inkscape-font-specification:AppleGothic;text-align:center;writing-mode:lr-tb;direction:ltr;text-anchor:middle;fill:#000000;fill-opacity:1;fill-rule:evenodd;stroke-width:7.80601;stroke-linejoin:round;stroke-miterlimit:10" x="1708.2507" y="540.8219" id="text543"><tspan sodipodi:role="line" style="font-size:24.6676px;stroke-width:7.80601" x="1708.2507" y="540.8219" id="tspan542">3D EEF</tspan><tspan sodipodi:role="line" style="font-size:24.6676px;stroke-width:7.80601" x="1708.2507" y="573.2793" id="tspan543">Trajectory</tspan></text>
  <text xml:space="preserve" style="font-size:24.6676px;font-family:DejaVu Sans Mono, ui-monospace, monospace;-inkscape-font-specification:AppleGothic;text-align:center;writing-mode:lr-tb;direction:ltr;text-anchor:middle;fill:#000000;fill-opacity:1;fill-rule:evenodd;stroke-width:6.46067;stroke-linejoin:round;stroke-miterlimit:10" x="931.49231" y="205.16211" id="text505"><tspan sodipodi:role="line" style="font-size:24.6676px;stroke-width:6.46067" x="931.49231" y="205.16211" id="tspan502" dx="0 0 0 0 0 0 0 0 0 0 0 0 0 0 0 0 0 0 0.72521192">Feature Volume</tspan><tspan sodipodi:role="line" style="font-size:24.6676px;stroke-width:6.46067" x="931.49231" y="237.61949" dx="0 7.2539046e-09 0 0 0 0 0 0 0 0 0 0 0 0 0 0 0 0 0 0 0 0 0 0 0 0 0 0 0 0 0 0 0 0 0 0 0.72521192" id="tspan505">[F1(x) | F2(x) | x]</tspan></text>
  <text xml:space="preserve" style="font-size:26.7199px;font-family:DejaVu Sans Mono, ui-monospace, monospace;-inkscape-font-specification:AppleGothic;text-align:center;writing-mode:lr-tb;direction:ltr;text-anchor:middle;fill:#000000;fill-opacity:1;fill-rule:evenodd;stroke-width:6.76679;stroke-linejoin:round;stroke-miterlimit:10" x="1620" y="44.168034" id="text596"><tspan sodipodi:role="line" style="stroke-width:6.76679" x="1620" y="44.168034" id="tspan596">4. Argmax Max-Prob EEF</tspan><tspan sodipodi:role="line" style="stroke-width:6.76679" x="1620" y="79.325783" id="tspan597">from Probability Volumes</tspan></text>
  <text xml:space="preserve" style="font-size:17.5032px;font-family:DejaVu Sans Mono, ui-monospace, monospace;-inkscape-font-specification:AppleGothic;text-align:center;writing-mode:lr-tb;direction:ltr;text-anchor:middle;fill:#000000;fill-opacity:1;fill-rule:evenodd;stroke-width:5.81208;stroke-linejoin:round;stroke-miterlimit:10" x="763.62885" y="289.25061" id="text33541"><tspan sodipodi:role="line" style="font-size:17.5032px;stroke-width:5.81208" x="763.62885" y="289.25061" dx="0 0 0 0 0 0 0 0 0 0 0 0 0 0 0 0 0 0.65240782" id="tspan33541"/></text>
  <text xml:space="preserve" style="font-size:24.6676px;font-family:DejaVu Sans Mono, ui-monospace, monospace;-inkscape-font-specification:AppleGothic;text-align:center;writing-mode:lr-tb;direction:ltr;text-anchor:middle;fill:#000000;fill-opacity:1;fill-rule:evenodd;stroke-width:6.46067;stroke-linejoin:round;stroke-miterlimit:10" x="390.59738" y="598.09601" id="text33545"><tspan sodipodi:role="line" style="font-size:24.6676px;stroke-width:6.46067" x="390.59738" y="598.09601" dx="0 0 0 0 0 0 0 0 0 0 0 0 0 0 0 0 0 0 0 0 0 0 0 0 0 0 0 0 0 0 0 0 0 0 0 0 0 0 0.72521192" id="tspan33550">EEF Volume</tspan></text>
  <text xml:space="preserve" style="font-size:29.8061px;font-family:DejaVu Sans Mono, ui-monospace, monospace;-inkscape-font-specification:AppleGothic;text-align:center;writing-mode:lr-tb;direction:ltr;text-anchor:middle;fill:#000000;fill-opacity:1;fill-rule:evenodd;stroke-width:9.89728;stroke-linejoin:round;stroke-miterlimit:10" x="923.3609" y="342.99371" id="text536"><tspan sodipodi:role="line" style="font-size:29.8061px;stroke-width:9.89728" x="923.3609" y="342.99371" id="tspan536">x</tspan></text>
  <text xml:space="preserve" style="font-size:29.8061px;font-family:DejaVu Sans Mono, ui-monospace, monospace;-inkscape-font-specification:AppleGothic;text-align:center;writing-mode:lr-tb;direction:ltr;text-anchor:middle;fill:#000000;fill-opacity:1;fill-rule:evenodd;stroke-width:9.89728;stroke-linecap:butt;stroke-linejoin:round;stroke-miterlimit:10" x="377.38293" y="505.87289" id="text536-1"><tspan sodipodi:role="line" style="font-size:29.8061px;stroke-width:9.89728" x="377.38293" y="505.87289" id="tspan536-7">x</tspan></text>
<path style="fill:none;fill-opacity:1;fill-rule:evenodd;stroke:#5e5e5e;stroke-width:1.11658;stroke-linecap:butt;stroke-linejoin:round;stroke-miterlimit:10;stroke-opacity:1;marker-end:url(#ArrowWide-4-7)" d="m 585.45214,896.51055 c 19.88951,-1.98934 39.77894,-3.97867 56.45276,-7.62969 16.67381,-3.65102 30.13193,-8.96371 43.59006,-14.27641" id="path511-1-5" inkscape:path-effect="#path-effect554-8-4-1" inkscape:original-d="m 585.45214,896.51055 c 19.88951,-1.98934 39.77894,-3.97867 59.66843,-5.968 13.45814,-5.31271 26.91626,-10.6254 40.37439,-15.9381" sodipodi:nodetypes="ccc" transform="matrix(2.8272438,-1.5497419,1.5497419,2.8272438,-2661.1773,-1167.3076)"/><path style="fill:none;fill-opacity:1;fill-rule:evenodd;stroke:#5e5e5e;stroke-width:1.11658;stroke-linejoin:round;stroke-miterlimit:10;stroke-opacity:1;marker-end:url(#ArrowWide)" d="m 543.28753,926.89211 c 13.48893,5.08181 26.97756,10.1635 39.89682,12.46743 12.91927,2.30394 25.26809,1.82991 37.61717,1.35588" id="path511" inkscape:path-effect="#path-effect554-8" inkscape:original-d="m 543.28753,926.89211 c 13.48893,5.08181 26.97756,10.1635 40.46675,15.24541 12.34934,-0.47404 24.69816,-0.94807 37.04724,-1.4221" sodipodi:nodetypes="ccc" transform="matrix(2.8272438,-1.5497419,1.5497419,2.8272438,-2331.5998,-1351.8421)"/><path style="fill:none;fill-opacity:1;fill-rule:evenodd;stroke:#5e5e5e;stroke-width:1.11658;stroke-linecap:butt;stroke-linejoin:round;stroke-miterlimit:10;stroke-opacity:1;marker-end:url(#ArrowWide-4)" d="m 580.09175,900.76797 c 9.9849,3.8214 19.96958,7.64271 30.88711,10.96088 10.91754,3.31817 22.76702,6.13292 34.61675,8.94773" id="path511-1" inkscape:path-effect="#path-effect554-8-4" inkscape:original-d="m 580.09175,900.76797 c 9.9849,3.8214 19.96958,7.64271 29.95467,11.46418 11.84998,2.81487 23.69946,5.62962 35.54919,8.44443" sodipodi:nodetypes="ccc" transform="matrix(2.8272438,-1.5497419,1.5497419,2.8272438,-2636.7785,-1170.6029)"/><path style="fill:none;fill-opacity:1;fill-rule:evenodd;stroke:#5e5e5e;stroke-width:1.14667;stroke-linejoin:round;stroke-miterlimit:10;stroke-opacity:1;marker-end:url(#ArrowWide)" d="m 514.03468,915.74934 c 10.2553,7.80595 20.51038,15.61174 31.70438,20.8802 11.19399,5.26847 23.32597,7.99919 35.45822,10.72997" id="path512" sodipodi:nodetypes="ccc" transform="matrix(2.1709716,2.3836715,2.3836715,-2.1709716,-2642.4894,994.12242)" inkscape:original-d="m 514.03468,915.74934 c 10.2553,7.80595 20.51038,15.61174 30.76589,23.41784 12.13248,2.73083 24.26446,5.46155 36.39671,8.19233" inkscape:path-effect="#path-effect556-6"/><g id="synth_labels" font-family="DejaVu Sans Mono, ui-monospace, monospace" fill="#ffffff" font-weight="600" text-anchor="middle"><text x="383" y="245" font-size="26">Image</text><text x="383" y="279" font-size="26">Encoder</text><text x="383" y="313" font-size="26">(DINOv3)</text><text x="1156" y="345" font-size="26">MLP</text></g><script>
      (function () {
        function ready(f){ if(document.readyState!=='loading')f();
          else document.addEventListener('DOMContentLoaded',f); }
        ready(function () {
          var vids = Array.prototype.slice.call(document.querySelectorAll('video'));
          if (vids.length &lt; 2) return;
          var master = vids[0];
          // Slave slaves to master's currentTime whenever drift &gt; 0.15s
          master.addEventListener('timeupdate', function () {
            var t = master.currentTime;
            for (var i = 1; i &lt; vids.length; i++) {
              var v = vids[i];
              if (Math.abs(v.currentTime - t) &gt; 0.15) v.currentTime = t;
            }
          });
          // Master loops → resync all slaves to 0
          master.addEventListener('seeked', function () {
            if (master.currentTime &lt; 0.1) {
              for (var i = 1; i &lt; vids.length; i++) vids[i].currentTime = 0;
            }
          });
          // Pause-on-stall: if any video buffers, pause all until every one
          // is ready (readyState &gt;= 3 = HAVE_FUTURE_DATA).
          function allReady(){ return vids.every(function(v){ return v.readyState &gt;= 3; }); }
          function pauseAll(){ vids.forEach(function(v){ try{v.pause();}catch(e){} }); }
          function playAll(){ vids.forEach(function(v){ v.play().catch(function(){}); }); }
          vids.forEach(function (v) {
            v.addEventListener('waiting', pauseAll);
            v.addEventListener('canplay', function () {
              if (allReady()) playAll();
            });
          });
          // Best-effort start (some browsers won't autoplay without this nudge
          // when videos come in via foreignObject).
          if (allReady()) playAll();
        });
      })();
    </script></svg>